<svg width="18" height="18" viewBox="0 0 18 18" fill="none" xmlns="http://www.w3.org/2000/svg">
<path d="M3.75 15.75C3.3375 15.75 2.98125 15.6063 2.68125 15.3188C2.39375 15.0188 2.25 14.6625 2.25 14.25V3.75C2.25 3.3375 2.39375 2.9875 2.68125 2.7C2.98125 2.4 3.3375 2.25 3.75 2.25H14.25C14.6625 2.25 15.0125 2.4 15.3 2.7C15.6 2.9875 15.75 3.3375 15.75 3.75V14.25C15.75 14.6625 15.6 15.0188 15.3 15.3188C15.0125 15.6063 14.6625 15.75 14.25 15.75H3.75ZM3.75 14.25H14.25V12H12C11.625 12.475 11.175 12.8438 10.65 13.1063C10.1375 13.3688 9.5875 13.5 9 13.5C8.4125 13.5 7.85625 13.3688 7.33125 13.1063C6.81875 12.8438 6.375 12.475 6 12H3.75V14.25ZM9 12C9.475 12 9.90625 11.8625 10.2938 11.5875C10.6812 11.3125 10.95 10.95 11.1 10.5H14.25V3.75H3.75V10.5H6.9C7.05 10.95 7.31875 11.3125 7.70625 11.5875C8.09375 11.8625 8.525 12 9 12ZM3.75 14.25H6C6.375 14.25 6.81875 14.25 7.33125 14.25C7.85625 14.25 8.4125 14.25 9 14.25C9.5875 14.25 10.1375 14.25 10.65 14.25C11.175 14.25 11.625 14.25 12 14.25H14.25H3.75Z" fill="#626466"/>
</svg>
