<svg width="18" height="18" viewBox="0 0 18 18" fill="none" xmlns="http://www.w3.org/2000/svg">
<path d="M6.9374 16.5L6.6374 14.1C6.4749 14.0375 6.32178 13.9625 6.17803 13.875C6.03428 13.7875 5.89365 13.6938 5.75615 13.5938L3.5249 14.5312L1.4624 10.9688L3.39365 9.50625C3.38115 9.41875 3.3749 9.33438 3.3749 9.25313V8.74688C3.3749 8.66563 3.38115 8.58125 3.39365 8.49375L1.4624 7.03125L3.5249 3.46875L5.75615 4.40625C5.89365 4.30625 6.0374 4.2125 6.1874 4.125C6.3374 4.0375 6.4874 3.9625 6.6374 3.9L6.9374 1.5H11.0624L11.3624 3.9C11.5249 3.9625 11.678 4.0375 11.8218 4.125C11.9655 4.2125 12.1062 4.30625 12.2437 4.40625L14.4749 3.46875L16.5374 7.03125L14.6062 8.49375C14.6187 8.58125 14.6249 8.66563 14.6249 8.74688V9.25313C14.6249 9.33438 14.6124 9.41875 14.5874 9.50625L16.5187 10.9688L14.4562 14.5312L12.2437 13.5938C12.1062 13.6938 11.9624 13.7875 11.8124 13.875C11.6624 13.9625 11.5124 14.0375 11.3624 14.1L11.0624 16.5H6.9374ZM8.2499 15H9.73115L9.99365 13.0125C10.3812 12.9125 10.7405 12.7656 11.0718 12.5719C11.403 12.3781 11.7062 12.1438 11.9812 11.8687L13.8374 12.6375L14.5687 11.3625L12.9562 10.1438C13.0187 9.96875 13.0624 9.78438 13.0874 9.59063C13.1124 9.39688 13.1249 9.2 13.1249 9C13.1249 8.8 13.1124 8.60313 13.0874 8.40938C13.0624 8.21563 13.0187 8.03125 12.9562 7.85625L14.5687 6.6375L13.8374 5.3625L11.9812 6.15C11.7062 5.8625 11.403 5.62188 11.0718 5.42813C10.7405 5.23438 10.3812 5.0875 9.99365 4.9875L9.7499 3H8.26865L8.00615 4.9875C7.61865 5.0875 7.25928 5.23438 6.92803 5.42813C6.59678 5.62188 6.29365 5.85625 6.01865 6.13125L4.1624 5.3625L3.43115 6.6375L5.04365 7.8375C4.98115 8.025 4.9374 8.2125 4.9124 8.4C4.8874 8.5875 4.8749 8.7875 4.8749 9C4.8749 9.2 4.8874 9.39375 4.9124 9.58125C4.9374 9.76875 4.98115 9.95625 5.04365 10.1438L3.43115 11.3625L4.1624 12.6375L6.01865 11.85C6.29365 12.1375 6.59678 12.3781 6.92803 12.5719C7.25928 12.7656 7.61865 12.9125 8.00615 13.0125L8.2499 15ZM9.0374 11.625C9.7624 11.625 10.3812 11.3688 10.8937 10.8563C11.4062 10.3438 11.6624 9.725 11.6624 9C11.6624 8.275 11.4062 7.65625 10.8937 7.14375C10.3812 6.63125 9.7624 6.375 9.0374 6.375C8.2999 6.375 7.67803 6.63125 7.17178 7.14375C6.66553 7.65625 6.4124 8.275 6.4124 9C6.4124 9.725 6.66553 10.3438 7.17178 10.8563C7.67803 11.3688 8.2999 11.625 9.0374 11.625Z" fill="#626466"/>
</svg>
