<svg width="61" height="60" viewBox="0 0 61 60" fill="none" xmlns="http://www.w3.org/2000/svg">
<path fill-rule="evenodd" clip-rule="evenodd" d="M47.7666 38.2676C47.7666 39.0742 47.2846 39.8073 46.5319 40.1456L32.4131 45.9407C31.7085 46.2574 30.9038 45.7567 30.9038 45.0017L30.9038 28.8996C30.9038 28.0812 31.3998 27.3397 32.169 27.0082L46.2725 20.9222C46.9755 20.6192 47.7665 21.1199 47.7665 21.8679L47.7666 38.2676ZM31.392 9.19075C30.8261 8.93642 30.174 8.93642 29.6081 9.19075L10.7346 17.6734C9.98194 18.0117 9.5 18.7448 9.5 19.5514V40.7033C9.5 41.5185 9.99216 42.2577 10.7569 42.5911L29.6303 50.8191C30.1835 51.0603 30.8164 51.0603 31.3697 50.8191L50.243 42.5911C51.0078 42.2577 51.4999 41.5185 51.4999 40.7033L51.5 19.5514C51.5 18.7448 51.0181 18.0117 50.2654 17.6734L31.392 9.19075Z" fill="#3C96EF"/>
</svg>
